<svg id="Layer_1" data-name="Layer 1" xmlns="http://www.w3.org/2000/svg" xmlns:xlink="http://www.w3.org/1999/xlink" viewBox="0 0 491 178"><defs><style>.cls-1{fill:url(#linear-gradient);}.cls-2{fill:url(#linear-gradient-2);}.cls-3{fill:url(#linear-gradient-3);}.cls-4{fill:url(#linear-gradient-4);}.cls-5{fill:url(#linear-gradient-5);}.cls-6{fill:url(#linear-gradient-6);}.cls-7{fill:url(#linear-gradient-7);}.cls-8{fill:url(#linear-gradient-8);}.cls-9{fill:url(#linear-gradient-9);}.cls-10{fill:url(#linear-gradient-10);}.cls-11{fill:url(#linear-gradient-11);}.cls-12{fill:url(#linear-gradient-12);}.cls-13{fill:url(#linear-gradient-13);}.cls-14{fill:none;clip-rule:evenodd;}.cls-15{clip-path:url(#clip-path);}.cls-16{fill:url(#linear-gradient-14);}.cls-17{mask:url(#mask);}.cls-18{fill:#b91c58;}.cls-18,.cls-20,.cls-26,.cls-28,.cls-33,.cls-35{fill-rule:evenodd;}.cls-19{mask:url(#mask-2);}.cls-20{fill:#ff0;}.cls-21{mask:url(#mask-3);}.cls-22{mask:url(#mask-4);}.cls-23{clip-path:url(#clip-path-2);}.cls-24{fill:url(#linear-gradient-15);}.cls-25{mask:url(#mask-5);}.cls-26{fill:#005b50;}.cls-27{mask:url(#mask-6);}.cls-28{fill:#ebf855;}.cls-29{mask:url(#mask-7);}.cls-30{clip-path:url(#clip-path-3);}.cls-31{fill:url(#linear-gradient-16);}.cls-32{mask:url(#mask-8);}.cls-33{fill:#4e046d;}.cls-34{mask:url(#mask-9);}.cls-35{fill:#ffbbd7;}.cls-36{mask:url(#mask-10);}.cls-37{mask:url(#mask-11);}.cls-38{mask:url(#mask-12);}.cls-39{mask:url(#mask-13);}.cls-40{fill:#d00000;}</style><linearGradient id="linear-gradient" x1="-262.82" y1="200.42" x2="-424.58" y2="134.63" gradientTransform="translate(510.92 -115.98)" gradientUnits="userSpaceOnUse"><stop offset="0" stop-color="#fff"/><stop offset="1"/></linearGradient><linearGradient id="linear-gradient-2" x1="-582.96" y1="99.96" x2="-403.38" y2="158.03" gradientTransform="translate(470.72 -96.73)" xlink:href="#linear-gradient"/><linearGradient id="linear-gradient-3" x1="-479.77" y1="187.88" x2="-413.83" y2="162.91" gradientTransform="translate(473.99 -96.73)" xlink:href="#linear-gradient"/><linearGradient id="linear-gradient-4" x1="-364.06" y1="289.79" x2="-411.19" y2="149.29" gradientTransform="translate(485.22 -75.78)" xlink:href="#linear-gradient"/><linearGradient id="linear-gradient-5" x1="-290.81" y1="36.52" x2="-418.99" y2="175.78" gradientTransform="translate(510.59 -87.9)" xlink:href="#linear-gradient"/><linearGradient id="linear-gradient-6" x1="-445.45" y1="257.27" x2="-441.76" y2="125.09" gradientTransform="translate(470.72 -96.73)" xlink:href="#linear-gradient"/><linearGradient id="linear-gradient-7" x1="-363.57" y1="82.6" x2="-401.28" y2="158.78" gradientTransform="translate(516.55 -115.98)" xlink:href="#linear-gradient"/><linearGradient id="linear-gradient-8" x1="-449.55" y1="269.98" x2="-388.82" y2="188.14" gradientTransform="translate(502.77 -76.21)" xlink:href="#linear-gradient"/><linearGradient id="linear-gradient-9" x1="-349.49" y1="-9.76" x2="-393.87" y2="206.54" gradientTransform="translate(516.55 -94.66)" xlink:href="#linear-gradient"/><linearGradient id="linear-gradient-10" x1="-487.91" y1="209.8" x2="-377.35" y2="145.46" gradientTransform="translate(516.55 -107.4)" xlink:href="#linear-gradient"/><linearGradient id="linear-gradient-11" x1="-495.57" y1="31.36" x2="-431.48" y2="190.96" gradientTransform="translate(474.91 -94.63)" xlink:href="#linear-gradient"/><linearGradient id="linear-gradient-12" x1="-294.89" y1="292.23" x2="-445.24" y2="160.08" gradientTransform="translate(484.46 -65.42)" xlink:href="#linear-gradient"/><linearGradient id="linear-gradient-13" x1="-213.79" y1="173.34" x2="-421.89" y2="212.77" gradientTransform="translate(491.48 -65.42)" xlink:href="#linear-gradient"/><clipPath id="clip-path"><path class="cls-14" d="M41,48.37a91.86,91.86,0,0,1,85.58,0s6.49-23-12.37-33.92A118.73,118.73,0,0,0,13,33.92a150.4,150.4,0,0,0,10.64,57C16.24,57.11,41,48.37,41,48.37"/></clipPath><linearGradient id="linear-gradient-14" x1="216.76" y1="39.24" x2="-61.13" y2="56.48" gradientUnits="userSpaceOnUse"><stop offset="0" stop-color="#ea0e63"/><stop offset="1" stop-color="#ff0"/></linearGradient><mask id="mask" x="101.77" y="12.01" width="25.87" height="36.36" maskUnits="userSpaceOnUse"><rect class="cls-1" x="101.77" y="12.01" width="25.87" height="36.36"/></mask><mask id="mask-2" x="13" y="14.28" width="54.72" height="76.6" maskUnits="userSpaceOnUse"><rect class="cls-2" x="13" y="14.28" width="54.72" height="76.6"/></mask><mask id="mask-3" x="13" y="17.52" width="30.47" height="73.35" maskUnits="userSpaceOnUse"><rect class="cls-6" x="13" y="17.52" width="30.47" height="73.35"/></mask><mask id="mask-4" x="114.19" y="14.45" width="13.45" height="33.91" maskUnits="userSpaceOnUse"><rect class="cls-7" x="114.19" y="14.45" width="13.45" height="33.91"/></mask><clipPath id="clip-path-2"><path class="cls-14" d="M126.56,48.37c-3.31,31.34-18.07,59.43-42.79,78.81,0,0,19.26,20.56,39.18-.54,20.71-25.62,31.77-58.07,31.59-92.72a116.8,116.8,0,0,0-40.35-19.47c15.94,8.35,12.37,33.92,12.37,33.92"/></clipPath><linearGradient id="linear-gradient-15" x1="83.6" y1="191.4" x2="148.31" y2="-8.86" gradientUnits="userSpaceOnUse"><stop offset="0" stop-color="#0131b8"/><stop offset="0.46" stop-color="#17baaf"/><stop offset="1" stop-color="#ebf855"/></linearGradient><mask id="mask-5" x="83.77" y="110.36" width="43.55" height="25.8" maskUnits="userSpaceOnUse"><rect class="cls-8" x="83.77" y="110.36" width="43.55" height="25.8"/></mask><mask id="mask-6" x="114.19" y="14.45" width="40.35" height="80.99" maskUnits="userSpaceOnUse"><rect class="cls-9" x="114.19" y="14.45" width="40.35" height="80.99"/></mask><mask id="mask-7" x="114.19" y="14.45" width="40.35" height="52.85" maskUnits="userSpaceOnUse"><rect class="cls-10" x="114.19" y="14.45" width="40.35" height="52.85"/></mask><clipPath id="clip-path-3"><path class="cls-14" d="M83.77,127.18C59.05,107.8,44.28,79.71,41,48.37c0,0-24.74,8.74-17.34,42.51A139.17,139.17,0,0,0,83.77,160,140.5,140.5,0,0,0,123,126.64c-17,17.36-39.18.54-39.18.54"/></clipPath><linearGradient id="linear-gradient-16" x1="-22.49" y1="-3.36" x2="123.66" y2="167.32" gradientUnits="userSpaceOnUse"><stop offset="0" stop-color="#1f32b3"/><stop offset="1" stop-color="#c735f7"/></linearGradient><mask id="mask-8" x="22.26" y="48.37" width="22.76" height="47.14" maskUnits="userSpaceOnUse"><rect class="cls-11" x="22.26" y="48.37" width="22.76" height="47.14"/></mask><mask id="mask-9" x="43.34" y="106.54" width="79.61" height="53.46" maskUnits="userSpaceOnUse"><rect class="cls-12" x="43.34" y="106.54" width="79.61" height="53.46"/></mask><mask id="mask-10" x="58.85" y="126.64" width="64.1" height="33.36" maskUnits="userSpaceOnUse"><rect class="cls-13" x="58.85" y="126.64" width="64.1" height="33.36"/></mask><mask id="mask-11" x="20.23" y="36.71" width="92.53" height="54.16" maskUnits="userSpaceOnUse"><rect class="cls-3" x="20.23" y="36.71" width="92.53" height="54.16"/></mask><mask id="mask-12" x="45.02" y="69.25" width="77.93" height="67.87" maskUnits="userSpaceOnUse"><rect class="cls-4" x="45.02" y="69.25" width="77.93" height="67.87"/></mask><mask id="mask-13" x="101.03" y="14.45" width="28.03" height="95.91" maskUnits="userSpaceOnUse"><rect class="cls-5" x="101.03" y="14.45" width="28.03" height="95.91"/></mask></defs><title>VEDHIK E SCHOOL</title><g class="cls-15"><rect class="cls-16" x="12.9" y="5.44" width="120.15" height="85.44"/></g><g class="cls-17"><path class="cls-18" d="M101.77,39.56a90.31,90.31,0,0,1,24.79,8.81s6.49-23-12.37-33.92q-5.76-1.52-11.63-2.44c.11.09,16.32,14.09-.15,27l-.64.51"/></g><g class="cls-19"><path class="cls-20" d="M41,48.37A90.14,90.14,0,0,1,58.8,41.23h0c22.49-19-4.63-26.91-4.78-26.95A116.74,116.74,0,0,0,13,33.92a150.4,150.4,0,0,0,10.64,57C16.24,57.11,41,48.37,41,48.37"/></g><g class="cls-21"><path class="cls-18" d="M43.47,17.52A116.71,116.71,0,0,0,13,33.92a150.4,150.4,0,0,0,10.64,57C16.24,57.11,41,48.37,41,48.37s-3.07-16,2.49-30.85"/></g><g class="cls-22"><path class="cls-18" d="M121.6,45.93q2.52,1.14,5,2.44s6.49-23-12.37-33.92c0,0,8.79,12.47,7.41,31.48"/></g><g class="cls-23"><rect class="cls-24" x="83.77" y="14.45" width="70.95" height="133.29"/></g><g class="cls-25"><path class="cls-26" d="M101,110.36a111.35,111.35,0,0,1-17.26,16.82S103,147.74,123,126.64c1.51-1.87,3-3.77,4.37-5.71-26.4,4.23-26.29-10.57-26.29-10.57Z"/></g><g class="cls-27"><path class="cls-28" d="M126.56,48.37a120.1,120.1,0,0,1-9.48,35.94c2.13,7.65,8.36,16.07,26.41,7.58a150.45,150.45,0,0,0,11-58,116.8,116.8,0,0,0-40.35-19.47c15.94,8.35,12.37,33.92,12.37,33.92"/></g><g class="cls-29"><path class="cls-26" d="M151.11,67.3a154.71,154.71,0,0,0,3.43-33.38,116.8,116.8,0,0,0-40.35-19.47c15.94,8.35,12.37,33.92,12.37,33.92s14.35,6.43,24.55,18.93"/></g><g class="cls-30"><rect class="cls-31" x="16.24" y="48.37" width="106.7" height="111.63"/></g><g class="cls-32"><path class="cls-33" d="M45,69.25a122.35,122.35,0,0,1-4-20.88S16.24,57.11,23.64,90.88c.62,1.55,1.28,3.1,1.95,4.63C30.08,76.42,38,70.4,45,69.25"/></g><g class="cls-34"><path class="cls-35" d="M83.77,127.18a111.25,111.25,0,0,1-20.26-20.61c-10.81-.44-19,4.32-20.17,18.5A140.27,140.27,0,0,0,83.77,160,140.5,140.5,0,0,0,123,126.64c-17,17.36-39.18.54-39.18.54"/></g><g class="cls-36"><path class="cls-35" d="M58.85,141.79A142.74,142.74,0,0,0,83.77,160,140.5,140.5,0,0,0,123,126.64c-17,17.36-39.18.54-39.18.54a276.38,276.38,0,0,1-24.92,14.61"/></g><g class="cls-37"><path class="cls-20" d="M23.64,90.88C16.24,57.11,41,48.37,41,48.37a91.92,91.92,0,0,1,71.66-5.94l.12-.35a92,92,0,0,0-72.08,4.33c-15,7.57-21.79,17.81-20.24,35.7,1,3,2,5.89,3.2,8.77"/></g><g class="cls-38"><path class="cls-35" d="M123,126.64c-17,17.36-39.18.54-39.18.54a111.25,111.25,0,0,1-20.26-20.61h0A113.5,113.5,0,0,1,45,69.25c3.06,18.65,14.34,34.17,16.56,37.29A111,111,0,0,0,82,128.36l1.8,1.44s16.89,12.78,32.44,4.56q3.53-3.74,6.74-7.72"/></g><g class="cls-39"><path class="cls-28" d="M118.23,17.27c11.25,10.17,8.33,31.1,8.33,31.1a119.8,119.8,0,0,1-9.48,35.94h0a111.82,111.82,0,0,1-16,26.05c5.46-3.52,16-22.12,16.81-23.77a119.3,119.3,0,0,0,10.68-37.26c.07-.57.14-1.15.2-1.73,0,0,3-21.44-8.75-31.47-1.92-.61-3.84-1.17-5.78-1.68a19.79,19.79,0,0,1,4,2.82"/></g><path d="M235.36,29.66h7.08L213.63,84.55H203.57L174.75,29.66h8L209.05,80Z"/><path d="M265.1,85.34a61.16,61.16,0,0,1-11.65-1,18.29,18.29,0,0,1-7.79-3.27,13,13,0,0,1-4.36-6.21,30.06,30.06,0,0,1-1.36-9.8,38.55,38.55,0,0,1,1.36-11.17,14.79,14.79,0,0,1,4.36-7,17.11,17.11,0,0,1,7.79-3.64,55.31,55.31,0,0,1,11.65-1,44.67,44.67,0,0,1,8.49.71A22.32,22.32,0,0,1,279.73,45a13.41,13.41,0,0,1,4.15,3.28,16.87,16.87,0,0,1,2.5,4.06,17.77,17.77,0,0,1,1.25,5,50.42,50.42,0,0,1,.34,6l-.57,2.28H246.8a25.56,25.56,0,0,0,.93,7.55,7.52,7.52,0,0,0,3.07,4.3,13.09,13.09,0,0,0,5.65,1.73q3.51.36,8.65.36c3.14,0,5.75-.08,7.81-.25a17.66,17.66,0,0,0,4.91-1,4.78,4.78,0,0,0,2.56-2,6.56,6.56,0,0,0,.73-3.3H288a12.69,12.69,0,0,1-1.16,5.66A8.69,8.69,0,0,1,283,82.57a21.73,21.73,0,0,1-7.06,2.11A74.26,74.26,0,0,1,265.1,85.34Zm0-37.38q-3.44,0-6.13.14a26.23,26.23,0,0,0-4.72.63,11.27,11.27,0,0,0-3.45,1.39,8.18,8.18,0,0,0-2.3,2.14,8.78,8.78,0,0,0-1.29,3.47,30.61,30.61,0,0,0-.41,5.38h34.31a19.42,19.42,0,0,0-.89-6.56,8.92,8.92,0,0,0-2.83-3.91,11,11,0,0,0-5-2.11A40.47,40.47,0,0,0,265.1,48Z"/><path d="M321.14,85.34a57.61,57.61,0,0,1-11.65-1,17.82,17.82,0,0,1-7.79-3.46,13.78,13.78,0,0,1-4.36-6.59A33.85,33.85,0,0,1,296,63.86a34.6,34.6,0,0,1,1.36-10.56,13.76,13.76,0,0,1,4.36-6.63,17.81,17.81,0,0,1,7.79-3.44,58.49,58.49,0,0,1,11.65-1,56,56,0,0,1,8.15.5A29.3,29.3,0,0,1,334.67,44a11.09,11.09,0,0,1,3.18,1.63,7.93,7.93,0,0,1,1.59,1.62V29.66h6.86V84.55h-6.86V78.1l-1.72,2.14a12.91,12.91,0,0,1-3.32,2.48,26.3,26.3,0,0,1-5.11,1.78A33.52,33.52,0,0,1,321.14,85.34Zm0-5.72c2.29,0,4.32-.05,6.11-.16a23.71,23.71,0,0,0,4.72-.69,9.79,9.79,0,0,0,3.45-1.57,7.77,7.77,0,0,0,2.3-2.77,14.45,14.45,0,0,0,1.31-4.3,40,40,0,0,0,.41-6.16,42.65,42.65,0,0,0-.41-6.38,15.12,15.12,0,0,0-1.31-4.42,7.5,7.5,0,0,0-2.3-2.81A10.36,10.36,0,0,0,332,48.79a22.34,22.34,0,0,0-4.72-.69c-1.79-.1-3.82-.14-6.11-.14-2.67,0-5,.08-6.92.25a22.87,22.87,0,0,0-5,.88,8.72,8.72,0,0,0-3.3,1.77,7.5,7.5,0,0,0-2,2.89,16,16,0,0,0-.93,4.26q-.22,2.49-.23,5.85c0,2.22.08,4.14.23,5.78a15.55,15.55,0,0,0,.93,4.2,7.47,7.47,0,0,0,2,2.88,8.72,8.72,0,0,0,3.3,1.77,23.44,23.44,0,0,0,5,.89C316.17,79.54,318.47,79.62,321.14,79.62Z"/><path d="M396.62,84.55V61.32a29.41,29.41,0,0,0-.57-6.27,7.7,7.7,0,0,0-2.29-4.13,10.49,10.49,0,0,0-4.86-2.27,40.12,40.12,0,0,0-8.29-.69,43,43,0,0,0-9.13.8,15.84,15.84,0,0,0-5.6,2.25,7.58,7.58,0,0,0-2.8,3.49,12.83,12.83,0,0,0-.77,4.54V84.55h-6.86V29.66h6.86V49.89a8.38,8.38,0,0,1,2-2.9,13,13,0,0,1,3-2.07,19.76,19.76,0,0,1,3.74-1.38,36.7,36.7,0,0,1,4.05-.8c1.37-.19,2.72-.32,4-.39s2.55-.11,3.67-.11a48.43,48.43,0,0,1,7.88.55,21.44,21.44,0,0,1,5.61,1.65,11,11,0,0,1,3.7,2.7,11.59,11.59,0,0,1,2.16,3.73,19.63,19.63,0,0,1,1,4.75c.16,1.76.25,3.66.25,5.7l0,23.23Z"/><path d="M421.82,36.52H415V29.66h6.86ZM415,43.38h6.86V84.55H415Z"/><path d="M433.25,29.66h6.87v30h2.24l25.2-16.3h10.3L448.69,62.54l30.31,22H468.71L442.4,64.83h-2.28V84.55h-6.87Z"/><path class="cls-40" d="M194.46,139.06a43.76,43.76,0,0,1-8.24-.67,13.12,13.12,0,0,1-5.51-2.31,9.29,9.29,0,0,1-3.08-4.4,21.36,21.36,0,0,1-1-6.93,27.43,27.43,0,0,1,1-7.9,10.42,10.42,0,0,1,3.08-5,12.18,12.18,0,0,1,5.51-2.58,39.52,39.52,0,0,1,8.24-.73,31.67,31.67,0,0,1,6,.5,16,16,0,0,1,4.35,1.47,9.56,9.56,0,0,1,2.93,2.32,11.91,11.91,0,0,1,1.77,2.87,12.84,12.84,0,0,1,.88,3.53,36.26,36.26,0,0,1,.24,4.27l-.4,1.62H181.52a18,18,0,0,0,.66,5.33,5.34,5.34,0,0,0,2.17,3,9.17,9.17,0,0,0,4,1.21,58.25,58.25,0,0,0,6.12.26q3.33,0,5.52-.18a12.56,12.56,0,0,0,3.48-.68,3.34,3.34,0,0,0,1.8-1.4,4.61,4.61,0,0,0,.52-2.34h4.85a8.9,8.9,0,0,1-.82,4,6.21,6.21,0,0,1-2.71,2.68,15.53,15.53,0,0,1-5,1.49A52.54,52.54,0,0,1,194.46,139.06Zm0-26.44c-1.62,0-3.06,0-4.34.1a19.68,19.68,0,0,0-3.33.44,8,8,0,0,0-2.44,1,5.68,5.68,0,0,0-1.63,1.52,6.16,6.16,0,0,0-.91,2.45,21.69,21.69,0,0,0-.29,3.8h24.26a13.66,13.66,0,0,0-.63-4.64,6.25,6.25,0,0,0-2-2.76,7.72,7.72,0,0,0-3.51-1.49A28.38,28.38,0,0,0,194.46,112.62Z"/><path d="M243.19,116.67A58.64,58.64,0,0,1,250,117a24.05,24.05,0,0,1,4.81,1,9.48,9.48,0,0,1,3.12,1.61,7.18,7.18,0,0,1,1.8,2.2,8.32,8.32,0,0,1,.82,2.75,28.22,28.22,0,0,1,.19,3.3,16.52,16.52,0,0,1-.32,3.31,8.26,8.26,0,0,1-1.12,2.83,8.35,8.35,0,0,1-2.2,2.29A12.69,12.69,0,0,1,253.6,138a27.81,27.81,0,0,1-5.17,1.07,60.47,60.47,0,0,1-7.06.36H234.9a62.29,62.29,0,0,1-6.37-.28,26.42,26.42,0,0,1-4.7-.84,11.49,11.49,0,0,1-3.26-1.44,7.21,7.21,0,0,1-3.14-4.73,17,17,0,0,1-.3-3.32H222a8.18,8.18,0,0,0,.66,3.62,4.19,4.19,0,0,0,2.17,2,12.18,12.18,0,0,0,4,.82c1.65.11,3.68.17,6.11.17h6.47a50.66,50.66,0,0,0,7-.41,13.61,13.61,0,0,0,4.47-1.3,5.14,5.14,0,0,0,2.35-2.33,8,8,0,0,0,.68-3.5,10.82,10.82,0,0,0-.46-3.43,4,4,0,0,0-1.85-2.19,10.63,10.63,0,0,0-3.88-1.16,50,50,0,0,0-6.54-.34h-6.68a75.25,75.25,0,0,1-7.62-.33,31.75,31.75,0,0,1-5.32-.95,11.08,11.08,0,0,1-3.43-1.54,6.5,6.5,0,0,1-2-2.11,7.21,7.21,0,0,1-.87-2.64,22.1,22.1,0,0,1-.21-3.15,16.08,16.08,0,0,1,.32-3.28A7.27,7.27,0,0,1,218.6,104a8.27,8.27,0,0,1,2.35-2.18,13.93,13.93,0,0,1,3.82-1.61,34.51,34.51,0,0,1,5.63-1q3.28-.33,7.73-.33H243q3.65,0,6.37.27a25.61,25.61,0,0,1,4.7.83,12.06,12.06,0,0,1,3.28,1.42,6.89,6.89,0,0,1,2.07,2,7.53,7.53,0,0,1,1.07,2.67,16,16,0,0,1,.31,3.31h-4.86a8,8,0,0,0-.65-3.57,4.16,4.16,0,0,0-2.18-1.93,12.48,12.48,0,0,0-4-.81q-2.47-.17-6.12-.16h-4.85a75.47,75.47,0,0,0-8,.34,16.88,16.88,0,0,0-5,1.15,5,5,0,0,0-2.53,2.17A7.4,7.4,0,0,0,222,110a13.75,13.75,0,0,0,.17,2.25,4.13,4.13,0,0,0,.72,1.73,4.26,4.26,0,0,0,1.53,1.25,10.26,10.26,0,0,0,2.61.84,29.59,29.59,0,0,0,3.95.47c1.56.09,3.42.14,5.57.14Z"/><path d="M266.44,123.87a41.72,41.72,0,0,1,.3-5.32,14.39,14.39,0,0,1,1.07-4,8.34,8.34,0,0,1,2.08-2.84,9.75,9.75,0,0,1,3.28-1.84,21,21,0,0,1,4.71-1,59,59,0,0,1,6.36-.3,43.85,43.85,0,0,1,8,.6,13.12,13.12,0,0,1,4.95,1.82,6.37,6.37,0,0,1,2.53,3.1,12.86,12.86,0,0,1,.71,4.49h-4.85c0-.62,0-1.2-.05-1.74a4.08,4.08,0,0,0-.37-1.47,3.24,3.24,0,0,0-1-1.18,6,6,0,0,0-2-.87,19.11,19.11,0,0,0-3.2-.53c-1.29-.11-2.88-.17-4.77-.17-2.16,0-4,.07-5.45.22a16,16,0,0,0-3.65.74,4.84,4.84,0,0,0-3.37,3.48,13.49,13.49,0,0,0-.42,2.94c0,1.13-.06,2.42-.06,3.89s0,2.7.06,3.81a13.1,13.1,0,0,0,.42,2.9,5.13,5.13,0,0,0,1.14,2.08,5.46,5.46,0,0,0,2.23,1.38,15.43,15.43,0,0,0,3.65.75c1.48.15,3.29.22,5.45.22,1.89,0,3.48-.06,4.77-.19a18.77,18.77,0,0,0,3.2-.56,5.55,5.55,0,0,0,2-.9,3.15,3.15,0,0,0,1-1.23,4.41,4.41,0,0,0,.37-1.52c0-.56.05-1.17.05-1.81h4.85a13.52,13.52,0,0,1-.71,4.6,6.49,6.49,0,0,1-2.53,3.19,12.94,12.94,0,0,1-4.95,1.86,43.74,43.74,0,0,1-8,.61,56.33,56.33,0,0,1-6.36-.31,21,21,0,0,1-4.71-1,9.75,9.75,0,0,1-3.28-1.84,8.49,8.49,0,0,1-2.08-2.83,14,14,0,0,1-1.07-4A40.46,40.46,0,0,1,266.44,123.87Z"/><path d="M336,138.5V122.07a20.55,20.55,0,0,0-.41-4.43,5.43,5.43,0,0,0-1.62-2.92,7.32,7.32,0,0,0-3.43-1.61,28.81,28.81,0,0,0-5.87-.49,30,30,0,0,0-6.45.57,11.1,11.1,0,0,0-4,1.59,5.31,5.31,0,0,0-2,2.47,8.86,8.86,0,0,0-.55,3.21v18H306.9V99.68h4.85V114a5.86,5.86,0,0,1,1.44-2,9.62,9.62,0,0,1,2.17-1.47,13.32,13.32,0,0,1,2.64-1,27.82,27.82,0,0,1,2.86-.57c1-.13,1.93-.23,2.86-.28s1.8-.07,2.59-.07a34.26,34.26,0,0,1,5.57.39,15.22,15.22,0,0,1,4,1.16,7.9,7.9,0,0,1,2.62,1.91,8.62,8.62,0,0,1,1.53,2.64,13.84,13.84,0,0,1,.72,3.36c.11,1.24.17,2.58.17,4l0,16.43Z"/><path d="M346.55,123.62a23.79,23.79,0,0,1,1-7.35,9.57,9.57,0,0,1,3.08-4.61,12.63,12.63,0,0,1,5.51-2.39,49.55,49.55,0,0,1,16.48,0,12.74,12.74,0,0,1,5.51,2.39,9.64,9.64,0,0,1,3.08,4.61,23.82,23.82,0,0,1,1,7.35,24.84,24.84,0,0,1-1,7.49,10,10,0,0,1-3.08,4.74,12.69,12.69,0,0,1-5.51,2.48,46.87,46.87,0,0,1-16.48,0,12.58,12.58,0,0,1-5.51-2.48,10,10,0,0,1-3.08-4.74A24.81,24.81,0,0,1,346.55,123.62Zm4.86,0c0,1.6.06,3,.17,4.17a12.21,12.21,0,0,0,.67,3,5.31,5.31,0,0,0,1.38,2.07,6.4,6.4,0,0,0,2.33,1.28,15.41,15.41,0,0,0,3.5.65c1.37.12,3,.17,4.89.17,1.61,0,3.06,0,4.33-.11a15.45,15.45,0,0,0,3.34-.51,7.75,7.75,0,0,0,2.44-1.14,5.38,5.38,0,0,0,1.63-2,11.48,11.48,0,0,0,.91-3.14,30,30,0,0,0,.29-4.48,28.74,28.74,0,0,0-.29-4.39,10.72,10.72,0,0,0-.91-3,5.26,5.26,0,0,0-1.63-1.93,7.27,7.27,0,0,0-2.44-1.08,17.83,17.83,0,0,0-3.34-.46c-1.27-.07-2.72-.1-4.33-.1s-3.06,0-4.34.1a17.72,17.72,0,0,0-3.33.46,7.18,7.18,0,0,0-2.44,1.08,5.07,5.07,0,0,0-1.63,1.93,10.41,10.41,0,0,0-.91,3A27.52,27.52,0,0,0,351.41,123.62Z"/><path d="M387,123.62a23.82,23.82,0,0,1,1-7.35,9.59,9.59,0,0,1,3.09-4.61,12.63,12.63,0,0,1,5.51-2.39,49.55,49.55,0,0,1,16.48,0,12.74,12.74,0,0,1,5.51,2.39,9.64,9.64,0,0,1,3.08,4.61,23.82,23.82,0,0,1,1,7.35,24.84,24.84,0,0,1-1,7.49,10,10,0,0,1-3.08,4.74,12.69,12.69,0,0,1-5.51,2.48,46.87,46.87,0,0,1-16.48,0,12.58,12.58,0,0,1-5.51-2.48,10,10,0,0,1-3.09-4.74A24.84,24.84,0,0,1,387,123.62Zm4.86,0c0,1.6.06,3,.17,4.17a11.78,11.78,0,0,0,.67,3,5.31,5.31,0,0,0,1.38,2.07,6.31,6.31,0,0,0,2.33,1.28,15.41,15.41,0,0,0,3.5.65c1.37.12,3,.17,4.89.17,1.61,0,3.06,0,4.33-.11a15.55,15.55,0,0,0,3.34-.51,7.75,7.75,0,0,0,2.44-1.14,5.38,5.38,0,0,0,1.63-2,11.48,11.48,0,0,0,.91-3.14,30,30,0,0,0,.29-4.48,28.74,28.74,0,0,0-.29-4.39,10.72,10.72,0,0,0-.91-3,5.26,5.26,0,0,0-1.63-1.93,7.27,7.27,0,0,0-2.44-1.08,18,18,0,0,0-3.34-.46c-1.27-.07-2.72-.1-4.33-.1s-3.07,0-4.34.1a17.72,17.72,0,0,0-3.33.46,7.09,7.09,0,0,0-2.44,1.08,5.07,5.07,0,0,0-1.63,1.93,10.11,10.11,0,0,0-.91,3A27.52,27.52,0,0,0,391.85,123.62Z"/><path d="M429.86,99.68h4.85V138.5h-4.85Z"/><path d="M453.74,125.13a36.83,36.83,0,0,1-4.49-.42,12.35,12.35,0,0,1-3.13-.89,5.18,5.18,0,0,1-2-1.56,6,6,0,0,1-1-2.4,15,15,0,0,1-.3-3.09,7.14,7.14,0,0,1,1-3.83,6.82,6.82,0,0,1,3.08-2.53,19,19,0,0,1,5.51-1.4,66.28,66.28,0,0,1,8.24-.43,52,52,0,0,1,7.92.5,14.94,14.94,0,0,1,5,1.56,6,6,0,0,1,2.56,2.64,9,9,0,0,1,.74,3.79h-4.86a4.26,4.26,0,0,0-.52-2.23,3.42,3.42,0,0,0-1.8-1.35,13.34,13.34,0,0,0-3.48-.68c-1.45-.13-3.3-.19-5.52-.19-2.43,0-4.47,0-6.12.1a19.1,19.1,0,0,0-4,.51,4,4,0,0,0-2.17,1.24,3.6,3.6,0,0,0-.66,2.3,13.29,13.29,0,0,0,.11,1.68,2.92,2.92,0,0,0,.52,1.35,2.57,2.57,0,0,0,1.19.81,9.66,9.66,0,0,0,2.14.41c.9.1,2,.15,3.34.16h4.83q3.44,0,6,.15a33.08,33.08,0,0,1,4.48.53,9.24,9.24,0,0,1,3.14,1.16,8.07,8.07,0,0,1,2,1.71,5.36,5.36,0,0,1,1,2.17,12.51,12.51,0,0,1,.31,2.9,13.13,13.13,0,0,1-.31,2.94,5.85,5.85,0,0,1-1.06,2.3,6.43,6.43,0,0,1-2.06,1.72,12.29,12.29,0,0,1-3.27,1.16,32.9,32.9,0,0,1-4.72.66q-2.73.21-6.38.21a54.36,54.36,0,0,1-7.64-.45,15.7,15.7,0,0,1-5-1.45,6.17,6.17,0,0,1-2.72-2.59,8.42,8.42,0,0,1-.82-3.9h4.85a5.09,5.09,0,0,0,.52,2.47,3.47,3.47,0,0,0,1.81,1.48,12.23,12.23,0,0,0,3.47.72c1.46.12,3.3.19,5.52.19,2,0,3.75-.05,5.17-.14a25.87,25.87,0,0,0,3.58-.45A8.9,8.9,0,0,0,470,134a3.42,3.42,0,0,0,1.27-1,3.3,3.3,0,0,0,.54-1.36,10.45,10.45,0,0,0,.11-1.65,8.2,8.2,0,0,0-.11-1.48,3.69,3.69,0,0,0-.52-1.29,2.46,2.46,0,0,0-1.19-1,9.8,9.8,0,0,0-2.13-.55,31.69,31.69,0,0,0-3.35-.3q-2-.09-4.83-.09Q456.35,125.23,453.74,125.13Z"/><path d="M176.83,155.11h2.55a2.18,2.18,0,0,1,2.46,2.16v0c0,1.45-1.16,2.21-2.59,2.21H178v2.08h-1.14Zm2.46,3.36c.86,0,1.4-.48,1.4-1.15v0c0-.76-.55-1.16-1.4-1.16H178v2.33Z"/><path d="M184.57,158.36h0a3.39,3.39,0,0,1,6.77,0v0a3.39,3.39,0,0,1-6.77,0Zm5.58,0h0A2.23,2.23,0,0,0,188,156a2.19,2.19,0,0,0-2.18,2.29v0a2.22,2.22,0,0,0,2.2,2.3A2.19,2.19,0,0,0,190.15,158.36Z"/><path d="M193.72,155.11H195l1.54,4.8,1.59-4.82h1l1.59,4.82,1.54-4.8h1.19l-2.25,6.52h-1L198.55,157,197,161.63h-1Z"/><path d="M206.39,155.11h4.8v1h-3.66v1.68h3.24v1h-3.24v1.73h3.71v1h-4.85Z"/><path d="M214.44,155.11h2.88a2.6,2.6,0,0,1,1.87.65,2,2,0,0,1,.54,1.39v0a2,2,0,0,1-1.55,2l1.75,2.45h-1.34L217,159.33h-1.43v2.25h-1.13Zm2.8,3.21c.81,0,1.33-.43,1.33-1.08v0c0-.7-.5-1.08-1.34-1.08h-1.66v2.18Z"/><path d="M223,155.11h1.14v6.47H223Z"/><path d="M227.75,155.11h1.06l3.47,4.47v-4.47h1.12v6.47h-1l-3.57-4.6v4.6h-1.12Z"/><path d="M236.62,158.36h0A3.3,3.3,0,0,1,240,155a3.48,3.48,0,0,1,2.49.88l-.72.86a2.52,2.52,0,0,0-1.81-.7,2.19,2.19,0,0,0-2.1,2.29v0a2.16,2.16,0,0,0,2.2,2.31,2.68,2.68,0,0,0,1.56-.49V159h-1.65v-1h2.75v2.72a4.15,4.15,0,0,1-2.7,1A3.22,3.22,0,0,1,236.62,158.36Z"/><path d="M250.2,160.64l.69-.81a3,3,0,0,0,2,.84c.7,0,1.15-.33,1.15-.82v0c0-.46-.26-.71-1.46-1-1.38-.33-2.16-.73-2.16-1.93v0a2,2,0,0,1,2.21-1.87,3.59,3.59,0,0,1,2.35.81l-.61.86a3,3,0,0,0-1.76-.67c-.66,0-1.05.35-1.05.77v0c0,.5.29.72,1.53,1s2.08.82,2.08,1.89v0c0,1.21-1,1.93-2.31,1.93A4,4,0,0,1,250.2,160.64Z"/><path d="M258.12,158.36h0a3.28,3.28,0,0,1,3.34-3.35,3.34,3.34,0,0,1,2.53,1l-.73.84a2.58,2.58,0,0,0-1.81-.81,2.18,2.18,0,0,0-2.14,2.29v0a2.19,2.19,0,0,0,2.14,2.3,2.59,2.59,0,0,0,1.86-.84l.73.74a3.36,3.36,0,0,1-2.63,1.14A3.25,3.25,0,0,1,258.12,158.36Z"/><path d="M267.08,155.11h1.14v2.69h3.09v-2.69h1.13v6.47h-1.13v-2.73h-3.09v2.73h-1.14Z"/><path d="M275.67,158.36h0a3.39,3.39,0,0,1,6.77,0v0a3.39,3.39,0,0,1-6.77,0Zm5.58,0h0a2.23,2.23,0,0,0-2.2-2.31,2.19,2.19,0,0,0-2.18,2.29v0a2.22,2.22,0,0,0,2.2,2.3A2.19,2.19,0,0,0,281.25,158.36Z"/><path d="M285.38,158.36h0a3.39,3.39,0,0,1,6.77,0v0a3.39,3.39,0,0,1-6.77,0Zm5.58,0h0a2.23,2.23,0,0,0-2.2-2.31,2.19,2.19,0,0,0-2.18,2.29v0a2.22,2.22,0,0,0,2.2,2.3A2.19,2.19,0,0,0,291,158.36Z"/><path d="M295.38,155.11h1.14v5.44h3.4v1h-4.54Z"/><path d="M302.52,160.64l.69-.81a3,3,0,0,0,2,.84c.7,0,1.15-.33,1.15-.82v0c0-.46-.26-.71-1.47-1-1.37-.33-2.15-.73-2.15-1.93v0A2,2,0,0,1,305,155a3.59,3.59,0,0,1,2.35.81l-.61.86A3,3,0,0,0,305,156c-.66,0-1.05.35-1.05.77v0c0,.5.29.72,1.53,1s2.08.82,2.08,1.89v0c0,1.21-.95,1.93-2.31,1.93A4,4,0,0,1,302.52,160.64Z"/><path d="M310.52,160.32h1.23v1.26h-1.23Z"/><path d="M319.69,155.11h4.79v1h-3.66v1.68h3.25v1h-3.25v1.73h3.71v1h-4.84Z"/><path d="M327.73,155.11h1.21l2,3.06,2-3.06h1.21v6.47H333v-4.64l-2,3.05h0l-2-3v4.62h-1.12Z"/><path d="M337.61,155.11h2.55a2.18,2.18,0,0,1,2.46,2.16v0c0,1.45-1.16,2.21-2.59,2.21h-1.28v2.08h-1.14Zm2.46,3.36c.86,0,1.4-.48,1.4-1.15v0c0-.76-.55-1.16-1.4-1.16h-1.32v2.33Z"/><path d="M345.35,158.36h0a3.39,3.39,0,0,1,6.77,0v0a3.39,3.39,0,0,1-6.77,0Zm5.58,0h0a2.23,2.23,0,0,0-2.2-2.31,2.19,2.19,0,0,0-2.19,2.29v0a2.22,2.22,0,0,0,2.21,2.3A2.19,2.19,0,0,0,350.93,158.36Z"/><path d="M354.5,155.11h1.23l1.54,4.8,1.59-4.82h1l1.59,4.82,1.55-4.8h1.19l-2.25,6.52h-1L359.33,157l-1.6,4.65h-1Z"/><path d="M367.17,155.11H372v1h-3.66v1.68h3.24v1h-3.24v1.73H372v1h-4.84Z"/><path d="M375.21,155.11h2.89a2.61,2.61,0,0,1,1.87.65,2,2,0,0,1,.53,1.39v0a1.94,1.94,0,0,1-1.54,2l1.75,2.45h-1.34l-1.59-2.25h-1.43v2.25h-1.14Zm2.81,3.21c.81,0,1.33-.43,1.33-1.08v0c0-.7-.5-1.08-1.34-1.08h-1.66v2.18Z"/><path d="M383.82,155.11H385v6.47h-1.13Z"/><path d="M388.53,155.11h1.06l3.46,4.47v-4.47h1.12v6.47h-.95l-3.57-4.6v4.6h-1.12Z"/><path d="M397.4,158.36h0a3.3,3.3,0,0,1,3.34-3.35,3.48,3.48,0,0,1,2.49.88l-.72.86a2.53,2.53,0,0,0-1.82-.7,2.2,2.2,0,0,0-2.1,2.29v0a2.16,2.16,0,0,0,2.21,2.31,2.68,2.68,0,0,0,1.56-.49V159H400.7v-1h2.76v2.72a4.15,4.15,0,0,1-2.7,1A3.21,3.21,0,0,1,397.4,158.36Z"/><path d="M411,160.64l.68-.81a3,3,0,0,0,2,.84c.7,0,1.14-.33,1.14-.82v0c0-.46-.26-.71-1.46-1-1.38-.33-2.15-.73-2.15-1.93v0a2,2,0,0,1,2.21-1.87,3.59,3.59,0,0,1,2.35.81l-.61.86a3,3,0,0,0-1.76-.67c-.67,0-1.05.35-1.05.77v0c0,.5.29.72,1.53,1s2.08.82,2.08,1.89v0c0,1.21-.95,1.93-2.31,1.93A4,4,0,0,1,411,160.64Z"/><path d="M420.63,156.16h-2.05v-1h5.25v1h-2.05v5.42h-1.15Z"/><path d="M426.79,158.84v-3.73h1.13v3.68c0,1.2.62,1.85,1.64,1.85s1.63-.61,1.63-1.8v-3.73h1.13v3.67a2.58,2.58,0,0,1-2.78,2.9A2.55,2.55,0,0,1,426.79,158.84Z"/><path d="M435.74,155.11h2.41a3.23,3.23,0,0,1,3.44,3.22v0a3.23,3.23,0,0,1-3.44,3.23h-2.41Zm2.41,5.44a2.12,2.12,0,0,0,2.25-2.19h0a2.13,2.13,0,0,0-2.25-2.21h-1.27v4.41Z"/><path d="M444.82,155.11h4.8v1H446v1.68h3.24v1H446v1.73h3.71v1h-4.85Z"/><path d="M452.87,155.11h1.05l3.47,4.47v-4.47h1.12v6.47h-1L454,157v4.6h-1.12Z"/><path d="M463.61,156.16h-2.05v-1h5.25v1h-2.05v5.42h-1.15Z"/><path d="M469.29,160.64l.69-.81a3,3,0,0,0,2,.84c.7,0,1.15-.33,1.15-.82v0c0-.46-.26-.71-1.46-1-1.38-.33-2.16-.73-2.16-1.93v0a2,2,0,0,1,2.21-1.87,3.59,3.59,0,0,1,2.35.81l-.61.86a3,3,0,0,0-1.76-.67c-.66,0-1.05.35-1.05.77v0c0,.5.29.72,1.53,1s2.08.82,2.08,1.89v0c0,1.21-.95,1.93-2.31,1.93A4,4,0,0,1,469.29,160.64Z"/><path d="M477.29,160.32h1.23v1.26h-1.23Z"/></svg>