<?xml version="1.0" encoding="utf-8"?>
<!-- Generator: Adobe Illustrator 23.0.0, SVG Export Plug-In . SVG Version: 6.00 Build 0)  -->
<svg version="1.1" id="Layer_1" xmlns="http://www.w3.org/2000/svg" xmlns:xlink="http://www.w3.org/1999/xlink" x="0px" y="0px"
	 viewBox="0 0 527 228.1" style="enable-background:new 0 0 527 228.1;" xml:space="preserve">
<style type="text/css">
	.st0{fill:#DDDDDD;}
</style>
<title>grey-square-dot-grid_corrected</title>
<path id="SQUARE-PATTERN" class="st0" d="M516,3h3V0h-3V3z M504,3h3V0h-3V3z M492,3h3V0h-3V3z M480,3h3V0h-3V3z M468,3h3V0h-3V3z
	 M456,3h3V0h-3V3z M444,3h3V0h-3V3z M432,3h3V0h-3V3z M420,3h3V0h-3V3z M408,3h3V0h-3V3z M396,3h3V0h-3V3z M384,3h3V0h-3V3z M372,3
	h3V0h-3V3z M360,3h3V0h-3V3z M348,3h3V0h-3V3z M336,3h3V0h-3V3z M324,3h3V0h-3V3z M312,3h3V0h-3V3z M300,3h3V0h-3V3z M288,3h3V0h-3
	V3z M276,3h3V0h-3V3z M264,3h3V0h-3V3z M252,3h3V0h-3V3z M240,3h3V0h-3V3z M228,3h3V0h-3V3z M216,3h3V0h-3V3z M204,3h3V0h-3V3z
	 M192,3h3V0h-3V3z M180,3h3V0h-3V3z M168,3h3V0h-3V3z M156,3h3V0h-3V3z M144,3h3V0h-3V3z M132,3h3V0h-3V3z M120,3h3V0h-3V3z M108,3
	h3V0h-3V3z M96,3h3V0h-3V3z M84,3h3V0h-3V3z M72,3h3V0h-3V3z M60,3h3V0h-3V3z M48,3h3V0h-3V3z M36,3h3V0h-3V3z M24,3h3V0h-3V3z
	 M12,3h3V0h-3V3z M0,3h3V0H0V3z M516,15h3v-3h-3V15z M504,15h3v-3h-3V15z M492,15h3v-3h-3V15z M480,15h3v-3h-3V15z M468,15h3v-3h-3
	V15z M456,15h3v-3h-3V15z M444,15h3v-3h-3V15z M432,15h3v-3h-3V15z M420,15h3v-3h-3V15z M408,15h3v-3h-3V15z M396,15h3v-3h-3V15z
	 M384,15h3v-3h-3V15z M372,15h3v-3h-3V15z M360,15h3v-3h-3V15z M348,15h3v-3h-3V15z M336,15h3v-3h-3V15z M324,15h3v-3h-3V15z
	 M312,15h3v-3h-3V15z M300,15h3v-3h-3V15z M288,15h3v-3h-3V15z M276,15h3v-3h-3V15z M264,15h3v-3h-3V15z M252,15h3v-3h-3V15z
	 M240,15h3v-3h-3V15z M228,15h3v-3h-3V15z M216,15h3v-3h-3V15z M204,15h3v-3h-3V15z M192,15h3v-3h-3V15z M180,15h3v-3h-3V15z
	 M168,15h3v-3h-3V15z M156,15h3v-3h-3V15z M144,15h3v-3h-3V15z M132,15h3v-3h-3V15z M120,15h3v-3h-3V15z M108,15h3v-3h-3V15z M96,15
	h3v-3h-3V15z M84,15h3v-3h-3V15z M72,15h3v-3h-3V15z M60,15h3v-3h-3V15z M48,15h3v-3h-3V15z M36,15h3v-3h-3V15z M24,15h3v-3h-3V15z
	 M12,15h3v-3h-3V15z M0,15h3v-3H0V15z M516,27h3v-3h-3V27z M504,27h3v-3h-3V27z M492,27h3v-3h-3V27z M480,27h3v-3h-3V27z M468,27h3
	v-3h-3V27z M456,27h3v-3h-3V27z M444,27h3v-3h-3V27z M432,27h3v-3h-3V27z M420,27h3v-3h-3V27z M408,27h3v-3h-3V27z M396,27h3v-3h-3
	V27z M384,27h3v-3h-3V27z M372,27h3v-3h-3V27z M360,27h3v-3h-3V27z M348,27h3v-3h-3V27z M336,27h3v-3h-3V27z M324,27h3v-3h-3V27z
	 M312,27h3v-3h-3V27z M300,27h3v-3h-3V27z M288,27h3v-3h-3V27z M276,27h3v-3h-3V27z M264,27h3v-3h-3V27z M252,27h3v-3h-3V27z
	 M240,27h3v-3h-3V27z M228,27h3v-3h-3V27z M216,27h3v-3h-3V27z M204,27h3v-3h-3V27z M192,27h3v-3h-3V27z M180,27h3v-3h-3V27z
	 M168,27h3v-3h-3V27z M156,27h3v-3h-3V27z M144,27h3v-3h-3V27z M132,27h3v-3h-3V27z M120,27h3v-3h-3V27z M108,27h3v-3h-3V27z M96,27
	h3v-3h-3V27z M84,27h3v-3h-3V27z M72,27h3v-3h-3V27z M60,27h3v-3h-3V27z M48,27h3v-3h-3V27z M36,27h3v-3h-3V27z M24,27h3v-3h-3V27z
	 M12,27h3v-3h-3V27z M0,27h3v-3H0V27z M516,39h3v-3h-3V39z M504,39h3v-3h-3V39z M492,39h3v-3h-3V39z M480,39h3v-3h-3V39z M468,39h3
	v-3h-3V39z M456,39h3v-3h-3V39z M444,39h3v-3h-3V39z M432,39h3v-3h-3V39z M420,39h3v-3h-3V39z M408,39h3v-3h-3V39z M396,39h3v-3h-3
	V39z M384,39h3v-3h-3V39z M372,39h3v-3h-3V39z M360,39h3v-3h-3V39z M348,39h3v-3h-3V39z M336,39h3v-3h-3V39z M324,39h3v-3h-3V39z
	 M312,39h3v-3h-3V39z M300,39h3v-3h-3V39z M288,39h3v-3h-3V39z M276,39h3v-3h-3V39z M264,39h3v-3h-3V39z M252,39h3v-3h-3V39z
	 M240,39h3v-3h-3V39z M228,39h3v-3h-3V39z M216,39h3v-3h-3V39z M204,39h3v-3h-3V39z M192,39h3v-3h-3V39z M180,39h3v-3h-3V39z
	 M168,39h3v-3h-3V39z M156,39h3v-3h-3V39z M144,39h3v-3h-3V39z M132,39h3v-3h-3V39z M120,39h3v-3h-3V39z M108,39h3v-3h-3V39z M96,39
	h3v-3h-3V39z M84,39h3v-3h-3V39z M72,39h3v-3h-3V39z M60,39h3v-3h-3V39z M48,39h3v-3h-3V39z M36,39h3v-3h-3V39z M24,39h3v-3h-3V39z
	 M12,39h3v-3h-3V39z M0,39h3v-3H0V39z M516,51h3v-3h-3V51z M504,51h3v-3h-3V51z M492,51h3v-3h-3V51z M480,51h3v-3h-3V51z M468,51h3
	v-3h-3V51z M456,51h3v-3h-3V51z M444,51h3v-3h-3V51z M432,51h3v-3h-3V51z M420,51h3v-3h-3V51z M408,51h3v-3h-3V51z M396,51h3v-3h-3
	V51z M384,51h3v-3h-3V51z M372,51h3v-3h-3V51z M360,51h3v-3h-3V51z M348,51h3v-3h-3V51z M336,51h3v-3h-3V51z M324,51h3v-3h-3V51z
	 M312,51h3v-3h-3V51z M300,51h3v-3h-3V51z M288,51h3v-3h-3V51z M276,51h3v-3h-3V51z M264,51h3v-3h-3V51z M252,51h3v-3h-3V51z
	 M240,51h3v-3h-3V51z M228,51h3v-3h-3V51z M216,51h3v-3h-3V51z M204,51h3v-3h-3V51z M192,51h3v-3h-3V51z M180,51h3v-3h-3V51z
	 M168,51h3v-3h-3V51z M156,51h3v-3h-3V51z M144,51h3v-3h-3V51z M132,51h3v-3h-3V51z M120,51h3v-3h-3V51z M108,51h3v-3h-3V51z M96,51
	h3v-3h-3V51z M84,51h3v-3h-3V51z M72,51h3v-3h-3V51z M60,51h3v-3h-3V51z M48,51h3v-3h-3V51z M36,51h3v-3h-3V51z M24,51h3v-3h-3V51z
	 M12,51h3v-3h-3V51z M0,51h3v-3H0V51z M516,63h3v-3h-3V63z M504,63h3v-3h-3V63z M492,63h3v-3h-3V63z M480,63h3v-3h-3V63z M468,63h3
	v-3h-3V63z M456,63h3v-3h-3V63z M444,63h3v-3h-3V63z M432,63h3v-3h-3V63z M420,63h3v-3h-3V63z M408,63h3v-3h-3V63z M396,63h3v-3h-3
	V63z M384,63h3v-3h-3V63z M372,63h3v-3h-3V63z M360,63h3v-3h-3V63z M348,63h3v-3h-3V63z M336,63h3v-3h-3V63z M324,63h3v-3h-3V63z
	 M312,63h3v-3h-3V63z M300,63h3v-3h-3V63z M288,63h3v-3h-3V63z M276,63h3v-3h-3V63z M264,63h3v-3h-3V63z M252,63h3v-3h-3V63z
	 M240,63h3v-3h-3V63z M228,63h3v-3h-3V63z M216,63h3v-3h-3V63z M204,63h3v-3h-3V63z M192,63h3v-3h-3V63z M180,63h3v-3h-3V63z
	 M168,63h3v-3h-3V63z M156,63h3v-3h-3V63z M144,63h3v-3h-3V63z M132,63h3v-3h-3V63z M120,63h3v-3h-3V63z M108,63h3v-3h-3V63z M96,63
	h3v-3h-3V63z M84,63h3v-3h-3V63z M72,63h3v-3h-3V63z M60,63h3v-3h-3V63z M48,63h3v-3h-3V63z M36,63h3v-3h-3V63z M24,63h3v-3h-3V63z
	 M12,63h3v-3h-3V63z M0,63h3v-3H0V63z M516,75h3v-3h-3V75z M504,75h3v-3h-3V75z M492,75h3v-3h-3V75z M480,75h3v-3h-3V75z M468,75h3
	v-3h-3V75z M456,75h3v-3h-3V75z M444,75h3v-3h-3V75z M432,75h3v-3h-3V75z M420,75h3v-3h-3V75z M408,75h3v-3h-3V75z M396,75h3v-3h-3
	V75z M384,75h3v-3h-3V75z M372,75h3v-3h-3V75z M360,75h3v-3h-3V75z M348,75h3v-3h-3V75z M336,75h3v-3h-3V75z M324,75h3v-3h-3V75z
	 M312,75h3v-3h-3V75z M300,75h3v-3h-3V75z M288,75h3v-3h-3V75z M276,75h3v-3h-3V75z M264,75h3v-3h-3V75z M252,75h3v-3h-3V75z
	 M240,75h3v-3h-3V75z M228,75h3v-3h-3V75z M216,75h3v-3h-3V75z M204,75h3v-3h-3V75z M192,75h3v-3h-3V75z M180,75h3v-3h-3V75z
	 M168,75h3v-3h-3V75z M156,75h3v-3h-3V75z M144,75h3v-3h-3V75z M132,75h3v-3h-3V75z M120,75h3v-3h-3V75z M108,75h3v-3h-3V75z M96,75
	h3v-3h-3V75z M84,75h3v-3h-3V75z M72,75h3v-3h-3V75z M60,75h3v-3h-3V75z M48,75h3v-3h-3V75z M36,75h3v-3h-3V75z M24,75h3v-3h-3V75z
	 M12,75h3v-3h-3V75z M0,75h3v-3H0V75z M516,87h3v-3h-3V87z M504,87h3v-3h-3V87z M492,87h3v-3h-3V87z M480,87h3v-3h-3V87z M468,87h3
	v-3h-3V87z M456,87h3v-3h-3V87z M444,87h3v-3h-3V87z M432,87h3v-3h-3V87z M420,87h3v-3h-3V87z M408,87h3v-3h-3V87z M396,87h3v-3h-3
	V87z M384,87h3v-3h-3V87z M372,87h3v-3h-3V87z M360,87h3v-3h-3V87z M348,87h3v-3h-3V87z M336,87h3v-3h-3V87z M324,87h3v-3h-3V87z
	 M312,87h3v-3h-3V87z M300,87h3v-3h-3V87z M288,87h3v-3h-3V87z M276,87h3v-3h-3V87z M264,87h3v-3h-3V87z M252,87h3v-3h-3V87z
	 M240,87h3v-3h-3V87z M228,87h3v-3h-3V87z M216,87h3v-3h-3V87z M204,87h3v-3h-3V87z M192,87h3v-3h-3V87z M180,87h3v-3h-3V87z
	 M168,87h3v-3h-3V87z M156,87h3v-3h-3V87z M144,87h3v-3h-3V87z M132,87h3v-3h-3V87z M120,87h3v-3h-3V87z M108,87h3v-3h-3V87z M96,87
	h3v-3h-3V87z M84,87h3v-3h-3V87z M72,87h3v-3h-3V87z M60,87h3v-3h-3V87z M48,87h3v-3h-3V87z M36,87h3v-3h-3V87z M24,87h3v-3h-3V87z
	 M12,87h3v-3h-3V87z M0,87h3v-3H0V87z M516,99h3v-3h-3V99z M504,99h3v-3h-3V99z M492,99h3v-3h-3V99z M480,99h3v-3h-3V99z M468,99h3
	v-3h-3V99z M456,99h3v-3h-3V99z M444,99h3v-3h-3V99z M432,99h3v-3h-3V99z M420,99h3v-3h-3V99z M408,99h3v-3h-3V99z M396,99h3v-3h-3
	V99z M384,99h3v-3h-3V99z M372,99h3v-3h-3V99z M360,99h3v-3h-3V99z M348,99h3v-3h-3V99z M336,99h3v-3h-3V99z M324,99h3v-3h-3V99z
	 M312,99h3v-3h-3V99z M300,99h3v-3h-3V99z M288,99h3v-3h-3V99z M276,99h3v-3h-3V99z M264,99h3v-3h-3V99z M252,99h3v-3h-3V99z
	 M240,99h3v-3h-3V99z M228,99h3v-3h-3V99z M216,99h3v-3h-3V99z M204,99h3v-3h-3V99z M192,99h3v-3h-3V99z M180,99h3v-3h-3V99z
	 M168,99h3v-3h-3V99z M156,99h3v-3h-3V99z M144,99h3v-3h-3V99z M132,99h3v-3h-3V99z M120,99h3v-3h-3V99z M108,99h3v-3h-3V99z M96,99
	h3v-3h-3V99z M84,99h3v-3h-3V99z M72,99h3v-3h-3V99z M60,99h3v-3h-3V99z M48,99h3v-3h-3V99z M36,99h3v-3h-3V99z M24,99h3v-3h-3V99z
	 M12,99h3v-3h-3V99z M0,99h3v-3H0V99z M516,111h3v-3h-3V111z M504,111h3v-3h-3V111z M492,111h3v-3h-3V111z M480,111h3v-3h-3V111z
	 M468,111h3v-3h-3V111z M456,111h3v-3h-3V111z M444,111h3v-3h-3V111z M432,111h3v-3h-3V111z M420,111h3v-3h-3V111z M408,111h3v-3h-3
	V111z M396,111h3v-3h-3V111z M384,111h3v-3h-3V111z M372,111h3v-3h-3V111z M360,111h3v-3h-3V111z M348,111h3v-3h-3V111z M336,111h3
	v-3h-3V111z M324,111h3v-3h-3V111z M312,111h3v-3h-3V111z M300,111h3v-3h-3V111z M288,111h3v-3h-3V111z M276,111h3v-3h-3V111z
	 M264,111h3v-3h-3V111z M252,111h3v-3h-3V111z M240,111h3v-3h-3V111z M228,111h3v-3h-3V111z M216,111h3v-3h-3V111z M204,111h3v-3h-3
	V111z M192,111h3v-3h-3V111z M180,111h3v-3h-3V111z M168,111h3v-3h-3V111z M156,111h3v-3h-3V111z M144,111h3v-3h-3V111z M132,111h3
	v-3h-3V111z M120,111h3v-3h-3V111z M108,111h3v-3h-3V111z M96,111h3v-3h-3V111z M84,111h3v-3h-3V111z M72,111h3v-3h-3V111z M60,111
	h3v-3h-3V111z M48,111h3v-3h-3V111z M36,111h3v-3h-3V111z M24,111h3v-3h-3V111z M12,111h3v-3h-3V111z M0,111h3v-3H0V111z M516,123h3
	v-3h-3V123z M504,123h3v-3h-3V123z M492,123h3v-3h-3V123z M480,123h3v-3h-3V123z M468,123h3v-3h-3V123z M456,123h3v-3h-3V123z
	 M444,123h3v-3h-3V123z M432,123h3v-3h-3V123z M420,123h3v-3h-3V123z M408,123h3v-3h-3V123z M396,123h3v-3h-3V123z M384,123h3v-3h-3
	V123z M372,123h3v-3h-3V123z M360,123h3v-3h-3V123z M348,123h3v-3h-3V123z M336,123h3v-3h-3V123z M324,123h3v-3h-3V123z M312,123h3
	v-3h-3V123z M300,123h3v-3h-3V123z M288,123h3v-3h-3V123z M276,123h3v-3h-3V123z M264,123h3v-3h-3V123z M252,123h3v-3h-3V123z
	 M240,123h3v-3h-3V123z M228,123h3v-3h-3V123z M216,123h3v-3h-3V123z M204,123h3v-3h-3V123z M192,123h3v-3h-3V123z M180,123h3v-3h-3
	V123z M168,123h3v-3h-3V123z M156,123h3v-3h-3V123z M144,123h3v-3h-3V123z M132,123h3v-3h-3V123z M120,123h3v-3h-3V123z M108,123h3
	v-3h-3V123z M96,123h3v-3h-3V123z M84,123h3v-3h-3V123z M72,123h3v-3h-3V123z M60,123h3v-3h-3V123z M48,123h3v-3h-3V123z M36,123h3
	v-3h-3V123z M24,123h3v-3h-3V123z M12,123h3v-3h-3V123z M0,123h3v-3H0V123z M516,135h3v-3h-3V135z M504,135h3v-3h-3V135z M492,135h3
	v-3h-3V135z M480,135h3v-3h-3V135z M468,135h3v-3h-3V135z M456,135h3v-3h-3V135z M444,135h3v-3h-3V135z M432,135h3v-3h-3V135z
	 M420,135h3v-3h-3V135z M408,135h3v-3h-3V135z M396,135h3v-3h-3V135z M384,135h3v-3h-3V135z M372,135h3v-3h-3V135z M360,135h3v-3h-3
	V135z M348,135h3v-3h-3V135z M336,135h3v-3h-3V135z M324,135h3v-3h-3V135z M312,135h3v-3h-3V135z M300,135h3v-3h-3V135z M288,135h3
	v-3h-3V135z M276,135h3v-3h-3V135z M264,135h3v-3h-3V135z M252,135h3v-3h-3V135z M240,135h3v-3h-3V135z M228,135h3v-3h-3V135z
	 M216,135h3v-3h-3V135z M204,135h3v-3h-3V135z M192,135h3v-3h-3V135z M180,135h3v-3h-3V135z M168,135h3v-3h-3V135z M156,135h3v-3h-3
	V135z M144,135h3v-3h-3V135z M132,135h3v-3h-3V135z M120,135h3v-3h-3V135z M108,135h3v-3h-3V135z M96,135h3v-3h-3V135z M84,135h3v-3
	h-3V135z M72,135h3v-3h-3V135z M60,135h3v-3h-3V135z M48,135h3v-3h-3V135z M36,135h3v-3h-3V135z M24,135h3v-3h-3V135z M12,135h3v-3
	h-3V135z M0,135h3v-3H0V135z M516,147h3v-3h-3V147z M504,147h3v-3h-3V147z M492,147h3v-3h-3V147z M480,147h3v-3h-3V147z M468,147h3
	v-3h-3V147z M456,147h3v-3h-3V147z M444,147h3v-3h-3V147z M432,147h3v-3h-3V147z M420,147h3v-3h-3V147z M408,147h3v-3h-3V147z
	 M396,147h3v-3h-3V147z M384,147h3v-3h-3V147z M372,147h3v-3h-3V147z M360,147h3v-3h-3V147z M348,147h3v-3h-3V147z M336,147h3v-3h-3
	V147z M324,147h3v-3h-3V147z M312,147h3v-3h-3V147z M300,147h3v-3h-3V147z M288,147h3v-3h-3V147z M276,147h3v-3h-3V147z M264,147h3
	v-3h-3V147z M252,147h3v-3h-3V147z M240,147h3v-3h-3V147z M228,147h3v-3h-3V147z M216,147h3v-3h-3V147z M204,147h3v-3h-3V147z
	 M192,147h3v-3h-3V147z M180,147h3v-3h-3V147z M168,147h3v-3h-3V147z M156,147h3v-3h-3V147z M144,147h3v-3h-3V147z M132,147h3v-3h-3
	V147z M120,147h3v-3h-3V147z M108,147h3v-3h-3V147z M96,147h3v-3h-3V147z M84,147h3v-3h-3V147z M72,147h3v-3h-3V147z M60,147h3v-3
	h-3V147z M48,147h3v-3h-3V147z M36,147h3v-3h-3V147z M24,147h3v-3h-3V147z M12,147h3v-3h-3V147z M0,147h3v-3H0V147z M516,159h3v-3
	h-3V159z M504,159h3v-3h-3V159z M492,159h3v-3h-3V159z M480,159h3v-3h-3V159z M468,159h3v-3h-3V159z M456,159h3v-3h-3V159z M444,159
	h3v-3h-3V159z M432,159h3v-3h-3V159z M420,159h3v-3h-3V159z M408,159h3v-3h-3V159z M396,159h3v-3h-3V159z M384,159h3v-3h-3V159z
	 M372,159h3v-3h-3V159z M360,159h3v-3h-3V159z M348,159h3v-3h-3V159z M336,159h3v-3h-3V159z M324,159h3v-3h-3V159z M312,159h3v-3h-3
	V159z M300,159h3v-3h-3V159z M288,159h3v-3h-3V159z M276,159h3v-3h-3V159z M264,159h3v-3h-3V159z M252,159h3v-3h-3V159z M240,159h3
	v-3h-3V159z M228,159h3v-3h-3V159z M216,159h3v-3h-3V159z M204,159h3v-3h-3V159z M192,159h3v-3h-3V159z M180,159h3v-3h-3V159z
	 M168,159h3v-3h-3V159z M156,159h3v-3h-3V159z M144,159h3v-3h-3V159z M132,159h3v-3h-3V159z M120,159h3v-3h-3V159z M108,159h3v-3h-3
	V159z M96,159h3v-3h-3V159z M84,159h3v-3h-3V159z M72,159h3v-3h-3V159z M60,159h3v-3h-3V159z M48,159h3v-3h-3V159z M36,159h3v-3h-3
	V159z M24,159h3v-3h-3V159z M12,159h3v-3h-3V159z M0,159h3v-3H0V159z M516,171h3v-3h-3V171z M504,171h3v-3h-3V171z M492,171h3v-3h-3
	V171z M480,171h3v-3h-3V171z M468,171h3v-3h-3V171z M456,171h3v-3h-3V171z M444,171h3v-3h-3V171z M432,171h3v-3h-3V171z M420,171h3
	v-3h-3V171z M408,171h3v-3h-3V171z M396,171h3v-3h-3V171z M384,171h3v-3h-3V171z M372,171h3v-3h-3V171z M360,171h3v-3h-3V171z
	 M348,171h3v-3h-3V171z M336,171h3v-3h-3V171z M324,171h3v-3h-3V171z M312,171h3v-3h-3V171z M300,171h3v-3h-3V171z M288,171h3v-3h-3
	V171z M276,171h3v-3h-3V171z M264,171h3v-3h-3V171z M252,171h3v-3h-3V171z M240,171h3v-3h-3V171z M228,171h3v-3h-3V171z M216,171h3
	v-3h-3V171z M204,171h3v-3h-3V171z M192,171h3v-3h-3V171z M180,171h3v-3h-3V171z M168,171h3v-3h-3V171z M156,171h3v-3h-3V171z
	 M144,171h3v-3h-3V171z M132,171h3v-3h-3V171z M120,171h3v-3h-3V171z M108,171h3v-3h-3V171z M96,171h3v-3h-3V171z M84,171h3v-3h-3
	V171z M72,171h3v-3h-3V171z M60,171h3v-3h-3V171z M48,171h3v-3h-3V171z M36,171h3v-3h-3V171z M24,171h3v-3h-3V171z M12,171h3v-3h-3
	V171z M0,171h3v-3H0V171z M516,183h3v-3h-3V183z M504,183h3v-3h-3V183z M492,183h3v-3h-3V183z M480,183h3v-3h-3V183z M468,183h3v-3
	h-3V183z M456,183h3v-3h-3V183z M444,183h3v-3h-3V183z M432,183h3v-3h-3V183z M420,183h3v-3h-3V183z M408,183h3v-3h-3V183z M396,183
	h3v-3h-3V183z M384,183h3v-3h-3V183z M372,183h3v-3h-3V183z M360,183h3v-3h-3V183z M348,183h3v-3h-3V183z M336,183h3v-3h-3V183z
	 M324,183h3v-3h-3V183z M312,183h3v-3h-3V183z M300,183h3v-3h-3V183z M288,183h3v-3h-3V183z M276,183h3v-3h-3V183z M264,183h3v-3h-3
	V183z M252,183h3v-3h-3V183z M240,183h3v-3h-3V183z M228,183h3v-3h-3V183z M216,183h3v-3h-3V183z M204,183h3v-3h-3V183z M192,183h3
	v-3h-3V183z M180,183h3v-3h-3V183z M168,183h3v-3h-3V183z M156,183h3v-3h-3V183z M144,183h3v-3h-3V183z M132,183h3v-3h-3V183z
	 M120,183h3v-3h-3V183z M108,183h3v-3h-3V183z M96,183h3v-3h-3V183z M84,183h3v-3h-3V183z M72,183h3v-3h-3V183z M60,183h3v-3h-3V183
	z M48,183h3v-3h-3V183z M36,183h3v-3h-3V183z M24,183h3v-3h-3V183z M12,183h3v-3h-3V183z M0,183h3v-3H0V183z M516,195h3v-3h-3V195z
	 M504,195h3v-3h-3V195z M492,195h3v-3h-3V195z M480,195h3v-3h-3V195z M468,195h3v-3h-3V195z M456,195h3v-3h-3V195z M444,195h3v-3h-3
	V195z M432,195h3v-3h-3V195z M420,195h3v-3h-3V195z M408,195h3v-3h-3V195z M396,195h3v-3h-3V195z M384,195h3v-3h-3V195z M372,195h3
	v-3h-3V195z M360,195h3v-3h-3V195z M348,195h3v-3h-3V195z M336,195h3v-3h-3V195z M324,195h3v-3h-3V195z M312,195h3v-3h-3V195z
	 M300,195h3v-3h-3V195z M288,195h3v-3h-3V195z M276,195h3v-3h-3V195z M264,195h3v-3h-3V195z M252,195h3v-3h-3V195z M240,195h3v-3h-3
	V195z M228,195h3v-3h-3V195z M216,195h3v-3h-3V195z M204,195h3v-3h-3V195z M192,195h3v-3h-3V195z M180,195h3v-3h-3V195z M168,195h3
	v-3h-3V195z M156,195h3v-3h-3V195z M144,195h3v-3h-3V195z M132,195h3v-3h-3V195z M120,195h3v-3h-3V195z M108,195h3v-3h-3V195z
	 M96,195h3v-3h-3V195z M84,195h3v-3h-3V195z M72,195h3v-3h-3V195z M60,195h3v-3h-3V195z M48,195h3v-3h-3V195z M36,195h3v-3h-3V195z
	 M24,195h3v-3h-3V195z M12,195h3v-3h-3V195z M0,195h3v-3H0V195z M516,207h3v-3h-3V207z M504,207h3v-3h-3V207z M492,207h3v-3h-3V207z
	 M480,207h3v-3h-3V207z M468,207h3v-3h-3V207z M456,207h3v-3h-3V207z M444,207h3v-3h-3V207z M432,207h3v-3h-3V207z M420,207h3v-3h-3
	V207z M408,207h3v-3h-3V207z M396,207h3v-3h-3V207z M384,207h3v-3h-3V207z M372,207h3v-3h-3V207z M360,207h3v-3h-3V207z M348,207h3
	v-3h-3V207z M336,207h3v-3h-3V207z M324,207h3v-3h-3V207z M312,207h3v-3h-3V207z M300,207h3v-3h-3V207z M288,207h3v-3h-3V207z
	 M276,207h3v-3h-3V207z M264,207h3v-3h-3V207z M252,207h3v-3h-3V207z M240,207h3v-3h-3V207z M228,207h3v-3h-3V207z M216,207h3v-3h-3
	V207z M204,207h3v-3h-3V207z M192,207h3v-3h-3V207z M180,207h3v-3h-3V207z M168,207h3v-3h-3V207z M156,207h3v-3h-3V207z M144,207h3
	v-3h-3V207z M132,207h3v-3h-3V207z M120,207h3v-3h-3V207z M108,207h3v-3h-3V207z M96,207h3v-3h-3V207z M84,207h3v-3h-3V207z M72,207
	h3v-3h-3V207z M60,207h3v-3h-3V207z M48,207h3v-3h-3V207z M36,207h3v-3h-3V207z M24,207h3v-3h-3V207z M12,207h3v-3h-3V207z M0,207h3
	v-3H0V207z M516,219h3v-3h-3V219z M504,219h3v-3h-3V219z M492,219h3v-3h-3V219z M480,219h3v-3h-3V219z M468,219h3v-3h-3V219z
	 M456,219h3v-3h-3V219z M444,219h3v-3h-3V219z M432,219h3v-3h-3V219z M420,219h3v-3h-3V219z M408,219h3v-3h-3V219z M396,219h3v-3h-3
	V219z M384,219h3v-3h-3V219z M372,219h3v-3h-3V219z M360,219h3v-3h-3V219z M348,219h3v-3h-3V219z M336,219h3v-3h-3V219z M324,219h3
	v-3h-3V219z M312,219h3v-3h-3V219z M300,219h3v-3h-3V219z M288,219h3v-3h-3V219z M276,219h3v-3h-3V219z M264,219h3v-3h-3V219z
	 M252,219h3v-3h-3V219z M240,219h3v-3h-3V219z M228,219h3v-3h-3V219z M216,219h3v-3h-3V219z M204,219h3v-3h-3V219z M192,219h3v-3h-3
	V219z M180,219h3v-3h-3V219z M168,219h3v-3h-3V219z M156,219h3v-3h-3V219z M144,219h3v-3h-3V219z M132,219h3v-3h-3V219z M120,219h3
	v-3h-3V219z M108,219h3v-3h-3V219z M96,219h3v-3h-3V219z M84,219h3v-3h-3V219z M72,219h3v-3h-3V219z M60,219h3v-3h-3V219z M48,219h3
	v-3h-3V219z M36,219h3v-3h-3V219z M24,219h3v-3h-3V219z M12,219h3v-3h-3V219z M0,219h3v-3H0V219z"/>
</svg>
