<svg xmlns="http://www.w3.org/2000/svg" version="1.1" xmlns:xlink="http://www.w3.org/1999/xlink" xmlns:svgjs="http://svgjs.dev/svgjs" width="1440" height="560" preserveAspectRatio="none" viewBox="0 0 1440 560"><g mask="url(&quot;#SvgjsMask1009&quot;)" fill="none"><rect width="132.24" height="132.24" clip-path="url(&quot;#SvgjsClipPath1010&quot;)" x="434.32" y="386.76" fill="url(&quot;#SvgjsPattern1011&quot;)" transform="rotate(53.76, 500.44, 452.88)"></rect><rect width="104" height="104" clip-path="url(&quot;#SvgjsClipPath1012&quot;)" x="261.55" y="493.23" fill="url(&quot;#SvgjsPattern1013&quot;)" transform="rotate(21.74, 313.55, 545.23)"></rect><path d="M567.24 236.55L567.04 249.35 554.5 251.97 554.3 264.77 541.77 267.39 541.57 280.2 529.03 282.81" stroke="#037b0b" stroke-width="1.13" stroke-dasharray="2, 2"></path><path d="M721.03 245.32a5.6 5.6 0 1 0 0.45 11.19 5.6 5.6 0 1 0-0.45-11.19zM721.67 261.31a5.6 5.6 0 1 0 0.46 11.19 5.6 5.6 0 1 0-0.46-11.19zM722.32 277.3a5.6 5.6 0 1 0 0.45 11.19 5.6 5.6 0 1 0-0.45-11.19zM722.97 293.28a5.6 5.6 0 1 0 0.45 11.19 5.6 5.6 0 1 0-0.45-11.19z" fill="#e73635"></path><path d="M1012.62 403.63 L938.32 286.68L1049.7616539587639 270.86334604123624z" stroke="#e73635" stroke-width="1.75" stroke-dasharray="3, 2"></path><rect width="247.2" height="247.2" clip-path="url(&quot;#SvgjsClipPath1014&quot;)" x="1163.9" y="12.59" fill="url(&quot;#SvgjsPattern1015&quot;)" transform="rotate(330.59, 1287.5, 136.19)"></rect><circle r="74.2387781739945" cx="475.3" cy="101.7" stroke="#d3b714" stroke-width="1" stroke-dasharray="3, 2"></circle><rect width="158.4" height="158.4" clip-path="url(&quot;#SvgjsClipPath1016&quot;)" x="1180.14" y="-57" fill="url(&quot;#SvgjsPattern1017&quot;)" transform="rotate(85.06, 1259.34, 22.2)"></rect><path d="M710.17 191.34L697.99 187.39 699.17 174.64 686.99 170.69 688.17 157.94 675.98 153.99 677.16 141.23M716.85 186.94L704.67 182.99 705.85 170.23 693.67 166.29 694.85 153.53 682.67 149.59 683.84 136.83" stroke="#e73635" stroke-width="1" stroke-dasharray="3, 3"></path><path d="M1343.64 505.83000000000004 L1352.28 511.67L1342.011168580566 514.698831419434z" stroke="#e73635" stroke-width="1.73"></path><path d="M301.99 269.79L290.69 263.77 294.08 251.42 282.78 245.4 286.17 233.05 274.86 227.03 278.26 214.68" stroke="#e73635" stroke-width="2.8"></path><path d="M185.8 103.53 L216.37 28.599999999999998L162.91730516210743 27.89730516210743z" fill="#e73635"></path></g><defs><mask id="SvgjsMask1009"><rect width="1440" height="560" fill="#ffffff"></rect></mask><pattern x="0" y="0" width="11.02" height="11.02" patternUnits="userSpaceOnUse" id="SvgjsPattern1011"><path d="M5.51 1L5.51 10.02M1 5.51L10.02 5.51" stroke="#d3b714" fill="none" stroke-width="4.4"></path></pattern><clipPath id="SvgjsClipPath1010"><circle r="33.06" cx="500.44" cy="452.88"></circle></clipPath><pattern x="0" y="0" width="104" height="10.4" patternUnits="userSpaceOnUse" id="SvgjsPattern1013"><rect width="104" height="5.2" x="0" y="0" fill="#d3b714"></rect><rect width="104" height="5.2" x="0" y="5.2" fill="rgba(0, 0, 0, 0)"></rect></pattern><clipPath id="SvgjsClipPath1012"><circle r="26" cx="313.55" cy="545.23"></circle></clipPath><pattern x="0" y="0" width="247.2" height="10.3" patternUnits="userSpaceOnUse" id="SvgjsPattern1015"><rect width="247.2" height="5.15" x="0" y="0" fill="#d3b714"></rect><rect width="247.2" height="5.15" x="0" y="5.15" fill="rgba(0, 0, 0, 0)"></rect></pattern><clipPath id="SvgjsClipPath1014"><circle r="61.8" cx="1287.5" cy="136.19"></circle></clipPath><pattern x="0" y="0" width="13.2" height="13.2" patternUnits="userSpaceOnUse" id="SvgjsPattern1017"><path d="M6.6 1L6.6 12.2M1 6.6L12.2 6.6" stroke="#037b0b" fill="none" stroke-width="3.38"></path></pattern><clipPath id="SvgjsClipPath1016"><circle r="39.6" cx="1259.34" cy="22.2"></circle></clipPath></defs></svg>